# xmcd
#
# Track frame offsets:
#	150
#	10952
#	26125
#	35922
#	47642
#	58650
#	68622
#	80672
#	92595
#	102370
#	117855
#	127335
#	138337
#	150562
#	162595
#	175642
#	190055
#	203347
#	217880
#	227482
#
# Disc length: 3163 seconds
#
# Revision: 0
# Processed by: cddbd v1.5PL3 Copyright (c) Steve Scherf et al.
# Submitted via: audiograbber 1.83.01
#
DISCID=0d0c5914
DTITLE=Nestor - Rei do Gado - Solos de Viola Sertaneja
DYEAR=1997
DGENRE=Sertanejo
TTITLE0=Chico Mineiro
TTITLE1=O Menino da Porteira
TTITLE2=Tristeza do Jeca
TTITLE3=Luar do Sertão
TTITLE4=João de Barro
TTITLE5=Canoeiro
TTITLE6=Moreninha Linda
TTITLE7=Pingo d'Água
TTITLE8=Viola Cabocla
TTITLE9=Cabocla Tereza
TTITLE10=Brasil Caboclo
TTITLE11=Mula Preta
TTITLE12=Chitãozinho e Xororó
TTITLE13=Mourão da Porteira
TTITLE14=Chalana
TTITLE15=Mágoa de Boiadeiro
TTITLE16=Rei do Gado
TTITLE17=Paisagem Sertaneja
TTITLE18=Berrante, Catira e Viola
TTITLE19=Viola, Minha Viola
EXTD=Submitted by gezassen - Brasil - 2004
EXTT0=
EXTT1=
EXTT2=
EXTT3=
EXTT4=
EXTT5=
EXTT6=
EXTT7=
EXTT8=
EXTT9=
EXTT10=
EXTT11=
EXTT12=
EXTT13=
EXTT14=
EXTT15=
EXTT16=
EXTT17=
EXTT18=
EXTT19=
PLAYORDER=
